# xmcd
#
# Track frame offsets: 
#        150
#        16569
#        36573
#        47905
#        61006
#        76071
#        89268
#        101150
#        120663
#        135059
#        148879
#        165866
#        181743
#        194237
#        206017
#        218389
#        233713
#        248180
#        261267
#        277533
#        296278
#        309167
#        322131
#        334334
#        345798
#
# Disc length: 4726 seconds
#
# Revision: 0
# Processed by: cddbd v1.5.2PL0 Copyright (c) Steve Scherf et al.
# Submitted via: ExactAudioCopy v0.95b2
#
DISCID=53127419
DTITLE=Various Artist - 101 Country Hits (2)
DYEAR=2007
DGENRE=Country
TTITLE0=John Denver - Leaving On A Jet Plane
TTITLE1=Lonestar - Amazed
TTITLE2=Eva Cassidy - Tennessee Waltz
TTITLE3=Dolly Parton - I Will Always love You
TTITLE4=Tanya Tucker - Delta Dawn
TTITLE5=Charlie Rich - Behind Closed Doors
TTITLE6=Tammy Wynette - Stand By Your Man
TTITLE7=Kenny Rogers - Coward Of The County
TTITLE8=Bellamy Brothers - If I Said You Had A Beautiful Body (Would Y
TTITLE8=ou Hold It Against Me)
TTITLE9=Glen Campbell - Wichita Lineman
TTITLE10=Ray Price - For The Good Times
TTITLE11=Willie Nelson - Always On My Mind
TTITLE12=Roy Orbison - Cryin'
TTITLE13=Don Gibson - I Can't Stop Loving You
TTITLE14=Jim Reeves - I Love You Because
TTITLE15=Crystal Gayle - When I Dream
TTITLE16=Dr Hook - A Little Bit More
TTITLE17=Hal Ketchum - Stay Forever
TTITLE18=Debby Boone - You Light Up My Life
TTITLE19=Juice Newton - Angel Of The Morning
TTITLE20=Bobbie Gentry - I'll Never Fall In Love Again
TTITLE21=Ray Stevens - Misty
TTITLE22=Billie Jo Spears - What I've Got in Mind
TTITLE23=Glen Campbell and Bobbie Gentry - All I Have To Do Is Dream
TTITLE24=Elvis Presley - Welcome To My World
EXTD=
EXTT0=
EXTT1=
EXTT2=
EXTT3=
EXTT4=
EXTT5=
EXTT6=
EXTT7=
EXTT8=
EXTT9=
EXTT10=
EXTT11=
EXTT12=
EXTT13=
EXTT14=
EXTT15=
EXTT16=
EXTT17=
EXTT18=
EXTT19=
EXTT20=
EXTT21=
EXTT22=
EXTT23=
EXTT24=
PLAYORDER=
